<svg id="Layer_1" data-name="Layer 1" xmlns="http://www.w3.org/2000/svg" viewBox="0 0 1383.97 249.69"><defs><style>.cls-1{fill:#fff;stroke-width:2px;}.cls-1,.cls-2,.cls-3{stroke:#fff;stroke-miterlimit:10;}.cls-2,.cls-3{fill:none;stroke-width:10px;}.cls-3{stroke-linecap:round;}</style></defs><path class="cls-1" d="M762.05,497.57a48.33,48.33,0,0,1-17.34-3.14,31,31,0,0,1-13.42-9.58q-5.19-6.44-5.18-16,0-8.47,3.76-13.27a19.71,19.71,0,0,1,9.42-6.67,34.82,34.82,0,0,1,11-1.88,41,41,0,0,0-7.61,11,26,26,0,0,0-2.59,10.83,19.22,19.22,0,0,0,2.74,10,20.19,20.19,0,0,0,8.25,7.53q5.49,2.91,13.65,2.91a41,41,0,0,0,13.74-2.36,26.6,26.6,0,0,0,11-7.06,16.76,16.76,0,0,0,4.32-11.77A17.29,17.29,0,0,0,790.08,457a38.1,38.1,0,0,0-9.5-8.32q-5.8-3.69-12.25-7.07a127.13,127.13,0,0,1-12.24-7.3,36.74,36.74,0,0,1-9.5-9.1,20.83,20.83,0,0,1-3.69-12.4,34.12,34.12,0,0,1,3.22-13.74,49.83,49.83,0,0,1,9.18-13.74,46.65,46.65,0,0,1,14.45-10.44,43.69,43.69,0,0,1,18.84-4q10.83,0,15.22,4.55t4.4,11.94a42.07,42.07,0,0,1-2,12.4,88.18,88.18,0,0,1-4.95,12.56,110.45,110.45,0,0,1-5.57,10.2,9.44,9.44,0,0,1-5.18-2.75,7.67,7.67,0,0,1-1.73-5.26,24,24,0,0,1,1.34-7.37c.88-2.73,1.93-5.55,3.14-8.48s2.25-5.78,3.14-8.56a24.59,24.59,0,0,0,1.33-7.3,5.76,5.76,0,0,0-1.65-4.39q-1.65-1.57-6.67-1.57a29.32,29.32,0,0,0-13.81,3.29,40.85,40.85,0,0,0-18.06,18.92A25,25,0,0,0,755,409.19a13.9,13.9,0,0,0,3.61,9.65,38,38,0,0,0,9.34,7.3q5.73,3.3,12.09,6.59a101,101,0,0,1,12.09,7.38,35.12,35.12,0,0,1,9.34,9.74,25.17,25.17,0,0,1,3.61,13.81,28,28,0,0,1-3.69,14.44,33.11,33.11,0,0,1-10,10.6,49.36,49.36,0,0,1-13.89,6.59A53.66,53.66,0,0,1,762.05,497.57Z" transform="translate(-345.5 -369.88)"/><path class="cls-1" d="M823.28,491.29a13.07,13.07,0,0,1-9-3.45q-3.84-3.46-3.85-10.37a33,33,0,0,1,2.52-11.93,60.29,60.29,0,0,1,6.9-12.71,66.88,66.88,0,0,1,10-11.38A52.49,52.49,0,0,1,842,433.2a29.17,29.17,0,0,1,12.87-3.14,18.87,18.87,0,0,1,11.46,3.46,10.76,10.76,0,0,1,4.71,9.1c0,2.83-1,4.87-3,6.13a9.5,9.5,0,0,1-7.07,1.1c.21-1,.4-1.89.55-2.83a17.81,17.81,0,0,0,.24-3,12.39,12.39,0,0,0-1.26-5.65q-1.26-2.52-5.34-2.52a16.26,16.26,0,0,0-8.94,3,42.68,42.68,0,0,0-8.72,7.77A66.29,66.29,0,0,0,830,457.15a64.08,64.08,0,0,0-5.18,11.22,30.76,30.76,0,0,0-1.89,9.89q0,5,3.61,5c2.41,0,5.08-1.17,8-3.53a63.92,63.92,0,0,0,8.87-8.87q4.47-5.34,8.55-10.91t7.07-9.5a1.41,1.41,0,0,1,1.25-.78c.42.1,1.23.34,2.44.7a12,12,0,0,1,3.37,1.65,3.33,3.33,0,0,1,1.57,2.83,8.85,8.85,0,0,1-1.33,4c-.89,1.63-1.94,3.4-3.14,5.34a51.68,51.68,0,0,0-3.14,5.81,13.34,13.34,0,0,0-1.34,5.57,7.33,7.33,0,0,0,1.1,3.85,3.9,3.9,0,0,0,3.61,1.8q3.78,0,10.6-5.57T888,456.75l3,3a66.7,66.7,0,0,1-9,15,46.62,46.62,0,0,1-11.07,10.2,21.75,21.75,0,0,1-11.77,3.69q-6.44,0-9.58-4.08a16,16,0,0,1-3.45-8.79V475a94,94,0,0,1-11.54,11.93A17.24,17.24,0,0,1,823.28,491.29Z" transform="translate(-345.5 -369.88)"/><path class="cls-1" d="M966.29,488.78q-6.12,0-9.11-3.61a13.13,13.13,0,0,1-3-8.64,24.49,24.49,0,0,1,1.1-7.22q1.1-3.62,2.2-7.14a21.8,21.8,0,0,0,1.1-6.36c0-1.78-.35-3-1-3.69a3.5,3.5,0,0,0-2.59-1q-3.6,0-8.39,5.5a166.54,166.54,0,0,0-11.86,16,91.57,91.57,0,0,0-4.71,7.93q-2.19,4.15-3.92,7a19.43,19.43,0,0,1-3.69-.47,16.33,16.33,0,0,1-4-1.33,2.58,2.58,0,0,1-1.73-2.28,19.57,19.57,0,0,1,1.57-5.49q1.56-4.08,3.61-9.5t3.61-10.68A31.86,31.86,0,0,0,927,448.9a6.53,6.53,0,0,0-.78-3.45,2.75,2.75,0,0,0-2.52-1.26c-2.19,0-4.84,1.31-7.92,3.93a74.94,74.94,0,0,0-9.74,10.28,111.07,111.07,0,0,0-9.57,14.13,97.53,97.53,0,0,0-7.3,15.62,16.21,16.21,0,0,1-4.24-.71,21.59,21.59,0,0,1-4.4-1.72c-1.25-.69-1.88-1.29-1.88-1.81,0-.1.37-1.59,1.1-4.47s1.62-6.46,2.67-10.76,2.14-8.68,3.29-13.18,2.15-8.43,3-11.78q.46-1.73,3.45-3.06a13,13,0,0,1,5.18-1.33,5.45,5.45,0,0,1,3.77,1.41,4.84,4.84,0,0,1,1.57,3.77,24,24,0,0,1-.63,4.55q-.63,3-1.57,6.75,3.3-4.4,7-8.71a70.67,70.67,0,0,1,7.69-7.77,40.69,40.69,0,0,1,8-5.5,17.31,17.31,0,0,1,7.92-2q5.8,0,7.85,4.16a20.27,20.27,0,0,1,2,9,25.2,25.2,0,0,1-.31,4,36.84,36.84,0,0,1-.86,3.93q-.55,2-1.5,4.63a61.83,61.83,0,0,1,6.52-8.09,30.47,30.47,0,0,1,7.61-5.88,17.9,17.9,0,0,1,8.64-2.2q6.12,0,8.47,3.69a14.72,14.72,0,0,1,2.36,8.08,30,30,0,0,1-1.34,8.56c-.89,3-1.78,5.81-2.66,8.47A22.29,22.29,0,0,0,966.6,477a5.58,5.58,0,0,0,.79,2.91c.52.89,1.57,1.33,3.14,1.33q4.23,0,8.16-3.92a48.44,48.44,0,0,0,7.3-9.66,116.38,116.38,0,0,0,5.73-10.91l2.67,3.3a87.74,87.74,0,0,1-6.52,13.11,43.58,43.58,0,0,1-9.34,11.14A18.48,18.48,0,0,1,966.29,488.78Z" transform="translate(-345.5 -369.88)"/><path class="cls-1" d="M996.58,491.29a13.07,13.07,0,0,1-9-3.45q-3.85-3.46-3.85-10.37a33.14,33.14,0,0,1,2.51-11.93,60.8,60.8,0,0,1,6.91-12.71,66.88,66.88,0,0,1,10-11.38,52.22,52.22,0,0,1,12.08-8.25,29.18,29.18,0,0,1,12.88-3.14,18.87,18.87,0,0,1,11.46,3.46,10.76,10.76,0,0,1,4.71,9.1q0,4.25-3,6.13a9.47,9.47,0,0,1-7.06,1.1c.21-1,.39-1.89.55-2.83a17.83,17.83,0,0,0,.23-3,12.38,12.38,0,0,0-1.25-5.65q-1.26-2.52-5.34-2.52a16.32,16.32,0,0,0-9,3,42.64,42.64,0,0,0-8.71,7.77,67,67,0,0,0-7.46,10.52,65.57,65.57,0,0,0-5.18,11.22,31,31,0,0,0-1.88,9.89q0,5,3.61,5c2.41,0,5.08-1.17,8-3.53a64.47,64.47,0,0,0,8.87-8.87q4.47-5.34,8.55-10.91t7.07-9.5a1.41,1.41,0,0,1,1.25-.78c.42.1,1.23.34,2.44.7a12.13,12.13,0,0,1,3.37,1.65,3.33,3.33,0,0,1,1.57,2.83,9,9,0,0,1-1.33,4c-.89,1.63-1.94,3.4-3.14,5.34a51.68,51.68,0,0,0-3.14,5.81,13.34,13.34,0,0,0-1.34,5.57,7.33,7.33,0,0,0,1.1,3.85,3.9,3.9,0,0,0,3.61,1.8q3.76,0,10.6-5.57t13.89-18.92l3,3a67,67,0,0,1-9,15,46.62,46.62,0,0,1-11.07,10.2,21.75,21.75,0,0,1-11.77,3.69q-6.45,0-9.58-4.08a15.89,15.89,0,0,1-3.45-8.79V475a94.67,94.67,0,0,1-11.54,11.93A17.24,17.24,0,0,1,996.58,491.29Z" transform="translate(-345.5 -369.88)"/><path class="cls-1" d="M1110.39,487.05q-6.12,0-9.34-3.06a10.27,10.27,0,0,1-3.21-7.77,22.24,22.24,0,0,1,1.1-6.67q1.1-3.54,2.19-7.15a23.76,23.76,0,0,0,1.1-6.9q0-3.45-1.65-4.79a5.93,5.93,0,0,0-3.84-1.34q-4.71,0-9.66,3.85a57.93,57.93,0,0,0-9.57,9.65q-4.63,5.82-8.72,12.09t-7.06,11.31a15.9,15.9,0,0,1-5.65-1,10.21,10.21,0,0,1-4.55-3.54,42.76,42.76,0,0,1,1.8-4.79c1.1-2.66,2.33-5.86,3.69-9.57s2.56-7.62,3.61-11.7a45,45,0,0,0,1.57-11.14,12.27,12.27,0,0,1,3.38-2.51,9.71,9.71,0,0,1,4.78-1.26q5.51,0,5.5,4.71a32.55,32.55,0,0,1-.71,5.57q-.7,3.69-2,8.4a93.5,93.5,0,0,1,9-10.36,50,50,0,0,1,10.12-7.93,20.9,20.9,0,0,1,10.6-3.06q6.75,0,10,4.55a17.09,17.09,0,0,1,3.22,10.05,24.41,24.41,0,0,1-1.57,8.79c-1,2.72-2.07,5.29-3.06,7.69a18.38,18.38,0,0,0-1.5,7.07,4.5,4.5,0,0,0,1.18,3.53,3.88,3.88,0,0,0,2.59,1q3.76,0,7.85-3.61a46.51,46.51,0,0,0,7.77-9.18,108.58,108.58,0,0,0,6.52-11.23l2.67,2.2A91.72,91.72,0,0,1,1131,473a40,40,0,0,1-9.26,10.2A18.45,18.45,0,0,1,1110.39,487.05Z" transform="translate(-345.5 -369.88)"/><path class="cls-1" d="M1146.66,491.13q-7.38,0-11.7-4.08t-4.32-12.24A56.3,56.3,0,0,1,1131.9,464q1.26-6.27,3.38-13.42t4.63-14.05l-2.59-.86c-.79-.26-1.81-.65-3.06-1.18v-4.87q2.82.48,4.23.87a29.47,29.47,0,0,0,3.46.7,198,198,0,0,1,9.42-20.56,89.33,89.33,0,0,1,9.73-15.07q4.71-5.65,8.16-5.65a4.64,4.64,0,0,1,3.14,1.25,3.74,3.74,0,0,1,1.42,2.83c0,1.25-.63,3.3-1.89,6.12s-2.85,6-4.79,9.5-3.87,7-5.8,10.44-3.67,6.43-5.19,9a55.65,55.65,0,0,0-2.74,4.86q4.08.63,7.53,1a59.3,59.3,0,0,0,6.91.4,73.52,73.52,0,0,0,9.42-.63q4.86-.63,10.83-1.73,4.25-11.29,9.42-22.21a197.5,197.5,0,0,1,10.6-19.63,90,90,0,0,1,10.36-14q4.93-5.25,8.71-5.26,3.13,0,4.87,3.54a17.09,17.09,0,0,1,1.72,7.61,38.35,38.35,0,0,1-2.66,12.56,88.85,88.85,0,0,1-7.38,15.23,90.35,90.35,0,0,1-11.07,14.75,58,58,0,0,1-13.74,11.15,70.94,70.94,0,0,0-3.69,11.69q-1.65,7-2.59,13.58a79.85,79.85,0,0,0-.94,10.52,133.26,133.26,0,0,1,8.48-18.21,48.93,48.93,0,0,1,10.6-13.34,19.3,19.3,0,0,1,12.79-5q7.22,0,10.52,4.79a18.07,18.07,0,0,1,3.29,10.44,27.38,27.38,0,0,1-1.64,9.18q-1.65,4.64-3.3,8.8a20.47,20.47,0,0,0-1.65,7.45c0,1.89.44,3.2,1.33,3.93a4.5,4.5,0,0,0,2.91,1.1q3.45,0,8.09-3.54a49.79,49.79,0,0,0,9.1-9.34,62.45,62.45,0,0,0,7.46-12.4l3,2.83a75.56,75.56,0,0,1-8.32,14.44A42.16,42.16,0,0,1,1243.6,484a22.5,22.5,0,0,1-12.48,3.85q-6,0-9.19-3.14a10.55,10.55,0,0,1-3.22-7.85,24.75,24.75,0,0,1,1.18-7.15c.79-2.56,1.54-5.2,2.28-7.92a29.3,29.3,0,0,0,1.1-7.54c0-2.41-.5-4.13-1.5-5.18a5.28,5.28,0,0,0-4-1.57,9.46,9.46,0,0,0-6.83,3.06,31.62,31.62,0,0,0-5.57,7.93q-2.52,4.86-4.71,10.28c-1.47,3.61-2.9,7-4.32,10.28A40.5,40.5,0,0,1,1192,487q-2.28,3.06-5,3.06a4.41,4.41,0,0,1-3.84-2.35,21.62,21.62,0,0,1-2.44-5.65,36.52,36.52,0,0,1-1.25-6.52c-.21-2.14-.32-3.79-.32-4.94a56.46,56.46,0,0,1-14.68,14.83A31,31,0,0,1,1146.66,491.13Zm4.55-7.85q7.85,0,15.78-6.83t13.73-18.76q.94-4.71,2-8.94t2.83-9.27q-4.71.94-9.11,1.42a81.93,81.93,0,0,1-8.63.47,77.74,77.74,0,0,1-8.48-.47c-2.82-.32-5.7-.73-8.63-1.26a110.8,110.8,0,0,0-5.65,15.54,59,59,0,0,0-2.2,16c0,4.3.6,7.38,1.81,9.27S1148.07,483.28,1151.21,483.28Zm50.86-56.51a68,68,0,0,0,8.48-8.79,89.48,89.48,0,0,0,7-10,102,102,0,0,0,5.18-9.73,42.85,42.85,0,0,0,2.9-8.09,17.77,17.77,0,0,0,.47-3.45q-1.26.31-4,3.45a86.18,86.18,0,0,0-6.36,8.56,120.8,120.8,0,0,0-7.22,12.56A119.36,119.36,0,0,0,1202.07,426.77Z" transform="translate(-345.5 -369.88)"/><path class="cls-1" d="M1264.71,491.29a13.07,13.07,0,0,1-9-3.45q-3.84-3.46-3.85-10.37a33,33,0,0,1,2.52-11.93,60.29,60.29,0,0,1,6.9-12.71,66.88,66.88,0,0,1,10-11.38,52.49,52.49,0,0,1,12.09-8.25,29.17,29.17,0,0,1,12.87-3.14,18.87,18.87,0,0,1,11.46,3.46,10.76,10.76,0,0,1,4.71,9.1c0,2.83-1,4.87-3,6.13a9.5,9.5,0,0,1-7.07,1.1c.21-1,.4-1.89.55-2.83a17.81,17.81,0,0,0,.24-3,12.39,12.39,0,0,0-1.26-5.65q-1.26-2.52-5.33-2.52a16.27,16.27,0,0,0-8.95,3,42.68,42.68,0,0,0-8.72,7.77,66.94,66.94,0,0,0-7.45,10.52,64.08,64.08,0,0,0-5.18,11.22,30.76,30.76,0,0,0-1.89,9.89q0,5,3.61,5c2.41,0,5.08-1.17,8-3.53a63.92,63.92,0,0,0,8.87-8.87q4.47-5.34,8.56-10.91t7.06-9.5a1.41,1.41,0,0,1,1.26-.78c.41.1,1.22.34,2.43.7a12,12,0,0,1,3.37,1.65,3.33,3.33,0,0,1,1.57,2.83,8.85,8.85,0,0,1-1.33,4c-.89,1.63-1.94,3.4-3.14,5.34a53.35,53.35,0,0,0-3.14,5.81,13.32,13.32,0,0,0-1.33,5.57,7.32,7.32,0,0,0,1.09,3.85,3.92,3.92,0,0,0,3.62,1.8q3.76,0,10.59-5.57t13.89-18.92l3,3a66.7,66.7,0,0,1-9,15,46.62,46.62,0,0,1-11.07,10.2,21.72,21.72,0,0,1-11.77,3.69q-6.43,0-9.58-4.08a16,16,0,0,1-3.45-8.79V475a94,94,0,0,1-11.54,11.93A17.24,17.24,0,0,1,1264.71,491.29Z" transform="translate(-345.5 -369.88)"/><path class="cls-1" d="M1403,497.57a48.38,48.38,0,0,1-17.35-3.14,31.08,31.08,0,0,1-13.42-9.58q-5.19-6.44-5.18-16,0-8.47,3.77-13.27a19.73,19.73,0,0,1,9.41-6.67,34.82,34.82,0,0,1,11-1.88,41.24,41.24,0,0,0-7.61,11,26,26,0,0,0-2.59,10.83,19.13,19.13,0,0,0,2.75,10,20.17,20.17,0,0,0,8.24,7.53q5.49,2.91,13.66,2.91a41,41,0,0,0,13.73-2.36,26.6,26.6,0,0,0,11-7.06,16.76,16.76,0,0,0,4.32-11.77A17.23,17.23,0,0,0,1431,457a38.1,38.1,0,0,0-9.5-8.32q-5.8-3.69-12.24-7.07a126.09,126.09,0,0,1-12.25-7.3,36.74,36.74,0,0,1-9.5-9.1,20.83,20.83,0,0,1-3.69-12.4,34.28,34.28,0,0,1,3.22-13.74,49.87,49.87,0,0,1,9.19-13.74,46.49,46.49,0,0,1,14.44-10.44,43.69,43.69,0,0,1,18.84-4q10.83,0,15.22,4.55t4.4,11.94a42.07,42.07,0,0,1-2,12.4,88.18,88.18,0,0,1-4.95,12.56,108.12,108.12,0,0,1-5.57,10.2,9.44,9.44,0,0,1-5.18-2.75,7.67,7.67,0,0,1-1.73-5.26,24,24,0,0,1,1.34-7.37c.89-2.73,1.93-5.55,3.14-8.48s2.25-5.78,3.14-8.56a24.27,24.27,0,0,0,1.33-7.3,5.76,5.76,0,0,0-1.65-4.39c-1.09-1.05-3.32-1.57-6.67-1.57a29.32,29.32,0,0,0-13.81,3.29,40.85,40.85,0,0,0-18.06,18.92,25,25,0,0,0-2.51,10.13,13.9,13.9,0,0,0,3.61,9.65,38,38,0,0,0,9.34,7.3q5.73,3.3,12.09,6.59a101,101,0,0,1,12.09,7.38,35.12,35.12,0,0,1,9.34,9.74,25.09,25.09,0,0,1,3.61,13.81,28,28,0,0,1-3.69,14.44,33.11,33.11,0,0,1-10,10.6,49.23,49.23,0,0,1-13.89,6.59A53.64,53.64,0,0,1,1403,497.57Z" transform="translate(-345.5 -369.88)"/><path class="cls-1" d="M1537.54,488.78q-6.12,0-9.1-3.61a13.14,13.14,0,0,1-3-8.64,24.82,24.82,0,0,1,1.1-7.22c.73-2.41,1.47-4.79,2.2-7.14a21.8,21.8,0,0,0,1.1-6.36q0-2.67-1-3.69a3.52,3.52,0,0,0-2.59-1q-3.62,0-8.4,5.5a168.47,168.47,0,0,0-11.85,16,86.76,86.76,0,0,0-4.71,7.93q-2.21,4.15-3.93,7a19.43,19.43,0,0,1-3.69-.47,16.33,16.33,0,0,1-4-1.33,2.6,2.6,0,0,1-1.73-2.28,19.93,19.93,0,0,1,1.57-5.49q1.57-4.08,3.61-9.5t3.61-10.68a31.86,31.86,0,0,0,1.57-8.87,6.53,6.53,0,0,0-.78-3.45,2.74,2.74,0,0,0-2.51-1.26q-3.3,0-7.93,3.93a74.93,74.93,0,0,0-9.73,10.28,110.07,110.07,0,0,0-9.58,14.13,97.53,97.53,0,0,0-7.3,15.62,16.28,16.28,0,0,1-4.24-.71,21.26,21.26,0,0,1-4.39-1.72c-1.26-.69-1.89-1.29-1.89-1.81,0-.1.37-1.59,1.1-4.47s1.63-6.46,2.67-10.76,2.14-8.68,3.3-13.18,2.14-8.43,3-11.78q.46-1.73,3.45-3.06a13.06,13.06,0,0,1,5.18-1.33,5.45,5.45,0,0,1,3.77,1.41,4.81,4.81,0,0,1,1.57,3.77,24,24,0,0,1-.63,4.55q-.63,3-1.57,6.75,3.3-4.4,7-8.71a71.57,71.57,0,0,1,7.69-7.77,40.69,40.69,0,0,1,8-5.5,17.35,17.35,0,0,1,7.93-2q5.8,0,7.84,4.16a20.28,20.28,0,0,1,2,9,25.2,25.2,0,0,1-.32,4,36.84,36.84,0,0,1-.86,3.93q-.55,2-1.49,4.63a61.76,61.76,0,0,1,6.51-8.09,30.51,30.51,0,0,1,7.62-5.88,17.87,17.87,0,0,1,8.63-2.2q6.12,0,8.48,3.69a14.71,14.71,0,0,1,2.35,8.08,30,30,0,0,1-1.33,8.56c-.89,3-1.78,5.81-2.67,8.47a22.29,22.29,0,0,0-1.34,6.83,5.58,5.58,0,0,0,.79,2.91c.52.89,1.57,1.33,3.14,1.33,2.82,0,5.55-1.31,8.16-3.92a48.07,48.07,0,0,0,7.3-9.66,116.38,116.38,0,0,0,5.73-10.91l2.67,3.3a88.62,88.62,0,0,1-6.51,13.11,43.78,43.78,0,0,1-9.34,11.14A18.51,18.51,0,0,1,1537.54,488.78Z" transform="translate(-345.5 -369.88)"/><path class="cls-1" d="M1571.6,488.62q-6.9,0-10.36-4.08a14.81,14.81,0,0,1-3.45-9.89,42.35,42.35,0,0,1,1.26-9.11,88.47,88.47,0,0,1,3.53-11.54,83.43,83.43,0,0,1,5.26-11.38,38,38,0,0,1,6.43-8.71c2.3-2.25,4.61-3.37,6.91-3.37a5,5,0,0,1,3.3,1.17,4.16,4.16,0,0,1,1.41,3.38q0,2-2.43,6.12l-5.65,9.42a88.74,88.74,0,0,0-5.66,11.07,27.93,27.93,0,0,0-2.43,10.91q0,5,1.81,6.67a7.52,7.52,0,0,0,5.26,1.65q5.32,0,11.61-5.34t13-18.68l2.36,2.51q-5.51,13.81-14,21.51T1571.6,488.62Zm18.53-70.8a10.2,10.2,0,0,1-5.42-1.49,5,5,0,0,1-2.43-4.63q0-3.76,4.08-6.44a15.28,15.28,0,0,1,8.48-2.67,8.7,8.7,0,0,1,4.79,1.26c1.3.84,2,2.35,2,4.55s-1.21,4.32-3.61,6.36A11.92,11.92,0,0,1,1590.13,417.82Z" transform="translate(-345.5 -369.88)"/><path class="cls-1" d="M1612.26,491.13q-7.38,0-11.69-4.08t-4.32-12.24A57,57,0,0,1,1597.5,464q1.26-6.27,3.38-13.42t4.63-14.05l-2.59-.86c-.78-.26-1.8-.65-3.06-1.18v-4.87c1.88.32,3.3.61,4.24.87a28.84,28.84,0,0,0,3.45.7A198,198,0,0,1,1617,410.6a90,90,0,0,1,9.73-15.07q4.71-5.65,8.17-5.65a4.66,4.66,0,0,1,3.14,1.25,3.73,3.73,0,0,1,1.41,2.83c0,1.25-.63,3.3-1.88,6.12s-2.86,6-4.79,9.5-3.87,7-5.81,10.44-3.67,6.43-5.18,9-2.43,4.13-2.75,4.86q4.08.63,7.54,1a59.12,59.12,0,0,0,6.9.4,73.28,73.28,0,0,0,9.42-.63q4.88-.63,10.84-1.73,4.23-11.29,9.41-22.21a199.59,199.59,0,0,1,10.6-19.63,90.59,90.59,0,0,1,10.36-14q5-5.25,8.71-5.26,3.15,0,4.87,3.54a17.09,17.09,0,0,1,1.73,7.61,38.14,38.14,0,0,1-2.67,12.56,88.12,88.12,0,0,1-7.38,15.23,90.35,90.35,0,0,1-11.07,14.75,57.9,57.9,0,0,1-13.73,11.15,70.94,70.94,0,0,0-3.69,11.69q-1.65,7-2.59,13.58a78.16,78.16,0,0,0-.94,10.52,133.24,133.24,0,0,1,8.47-18.21,48.93,48.93,0,0,1,10.6-13.34,19.32,19.32,0,0,1,12.79-5q7.23,0,10.52,4.79a18,18,0,0,1,3.3,10.44,27.15,27.15,0,0,1-1.65,9.18q-1.65,4.64-3.3,8.8a20.44,20.44,0,0,0-1.64,7.45c0,1.89.44,3.2,1.33,3.93a4.49,4.49,0,0,0,2.9,1.1q3.45,0,8.09-3.54a49.79,49.79,0,0,0,9.1-9.34,62,62,0,0,0,7.46-12.4l3,2.83a75,75,0,0,1-8.32,14.44A42,42,0,0,1,1709.2,484a22.5,22.5,0,0,1-12.48,3.85q-6,0-9.18-3.14a10.51,10.51,0,0,1-3.22-7.85,24.71,24.71,0,0,1,1.17-7.15q1.18-3.84,2.28-7.92a29.3,29.3,0,0,0,1.1-7.54c0-2.41-.5-4.13-1.49-5.18a5.29,5.29,0,0,0-4-1.57,9.45,9.45,0,0,0-6.83,3.06,31.89,31.89,0,0,0-5.58,7.93q-2.51,4.86-4.71,10.28T1662,479a40.49,40.49,0,0,1-4.4,7.93q-2.28,3.06-4.94,3.06a4.43,4.43,0,0,1-3.85-2.35,21.61,21.61,0,0,1-2.43-5.65,36.55,36.55,0,0,1-1.26-6.52c-.21-2.14-.31-3.79-.31-4.94a56.61,56.61,0,0,1-14.68,14.83A31.09,31.09,0,0,1,1612.26,491.13Zm4.55-7.85q7.86,0,15.78-6.83t13.74-18.76c.63-3.14,1.3-6.12,2-8.94s1.67-5.92,2.82-9.27q-4.71.94-9.1,1.42a82.11,82.11,0,0,1-8.64.47,77.56,77.56,0,0,1-8.47-.47c-2.83-.32-5.71-.73-8.64-1.26a112.08,112.08,0,0,0-5.65,15.54,59,59,0,0,0-2.2,16c0,4.3.6,7.38,1.81,9.27S1613.67,483.28,1616.81,483.28Zm50.87-56.51a67.92,67.92,0,0,0,8.47-8.79,88.18,88.18,0,0,0,7-10,99.75,99.75,0,0,0,5.18-9.73,42.85,42.85,0,0,0,2.9-8.09,17.16,17.16,0,0,0,.48-3.45q-1.26.31-4,3.45a86.18,86.18,0,0,0-6.36,8.56,122.63,122.63,0,0,0-7.22,12.56A118,118,0,0,0,1667.68,426.77Z" transform="translate(-345.5 -369.88)"/><path class="cls-1" d="M925.26,600.89a9.84,9.84,0,0,1-5.18-1.46,4.33,4.33,0,0,1-2.42-3.76,9.13,9.13,0,0,1,.41-2.56c.27-.91.53-1.77.78-2.56q2.83-8.7,5.31-16.26t5-14.56q2.52-7,5.31-14.05t6.27-14.75a28.22,28.22,0,0,0-6,1.88q-2.47,1.14-4,2a5.56,5.56,0,0,1-2.29.87,2.63,2.63,0,0,1-1.32-.64,7.22,7.22,0,0,1-1.51-1.46,2.52,2.52,0,0,1-.65-1.47q2.57-1.1,6-2.29a59.43,59.43,0,0,1,7.47-2,40,40,0,0,1,8-.83,35.62,35.62,0,0,1,8.79,1.15,31.15,31.15,0,0,1,8.29,3.39,19.35,19.35,0,0,1,6.14,5.58,13.38,13.38,0,0,1,2.33,7.83,15.34,15.34,0,0,1-2.19,8.34,19.46,19.46,0,0,1-5.82,5.86,35.16,35.16,0,0,1-7.83,3.84,53.74,53.74,0,0,1-8.38,2.2c-2.78.49-5.26.82-7.46,1s-3.85.27-5,.27h-.55q-2.57,9.07-5,18.09T925.26,600.89Zm10.44-37.27A53.87,53.87,0,0,0,946,561.88a37.56,37.56,0,0,0,9.3-3.8,20.25,20.25,0,0,0,6.68-6.09,14.64,14.64,0,0,0,2.52-8.51,11.06,11.06,0,0,0-2.42-7.42,15.22,15.22,0,0,0-6.23-4.3,23.48,23.48,0,0,0-8-1.56,116,116,0,0,0-6.32,15.15Q938.44,554.11,935.7,563.62Z" transform="translate(-345.5 -369.88)"/><path class="cls-1" d="M970,596.41q-2,0-2.89-3.12a26.92,26.92,0,0,1-.87-7.23,44.79,44.79,0,0,1,1.42-10.17,112.13,112.13,0,0,1,3.85-12.54q2.41-6.6,5.4-12.91a118.62,118.62,0,0,1,6.14-11.5,52.6,52.6,0,0,1,6-8.28c1.92-2.08,3.62-3.12,5.08-3.12a3.18,3.18,0,0,1,2.93,2.11,10.09,10.09,0,0,1,1,4.4,20.67,20.67,0,0,1-1.15,6.08,55.83,55.83,0,0,1-3.15,7.74A67.67,67.67,0,0,1,989,556a56.52,56.52,0,0,1-5.86,7.28,31.18,31.18,0,0,1-6.55,5.31,54.5,54.5,0,0,0-1.88,5.81,38.33,38.33,0,0,0-1.23,9.76c0,.3,0,.62,0,1s.05.65.05,1a17.87,17.87,0,0,0,1.19-2.84q.83-2.28,2.24-5.36a38.23,38.23,0,0,1,3.53-6,20,20,0,0,1,4.94-4.94,11.1,11.1,0,0,1,6.51-2,7.46,7.46,0,0,1,4.85,1.42,7.73,7.73,0,0,1,2.47,3.48,12.28,12.28,0,0,1,.73,4.16,15.55,15.55,0,0,1-1,5.5q-1,2.56-1.92,4.8a10.87,10.87,0,0,0-1,4.26,2.92,2.92,0,0,0,.73,2.29,2.55,2.55,0,0,0,1.74.64,8.41,8.41,0,0,0,4.72-2,30.55,30.55,0,0,0,5.4-5.36,37,37,0,0,0,4.62-7.37l1.47,1.56a47.53,47.53,0,0,1-4.95,8.42,26,26,0,0,1-6.22,6.14,12.88,12.88,0,0,1-7.33,2.29,7.2,7.2,0,0,1-5.31-1.84,6.2,6.2,0,0,1-1.83-4.58,15.4,15.4,0,0,1,.68-4.25q.69-2.34,1.33-4.72a16.6,16.6,0,0,0,.64-4.3,3.83,3.83,0,0,0-1-3,3.46,3.46,0,0,0-2.33-.83,5.76,5.76,0,0,0-4.12,1.79,17.67,17.67,0,0,0-3.3,4.62c-1,1.89-1.89,3.89-2.75,6s-1.71,4.11-2.56,6a22.54,22.54,0,0,1-2.7,4.62A4.12,4.12,0,0,1,970,596.41Zm8.6-33.7a33.21,33.21,0,0,0,4.58-5,65.94,65.94,0,0,0,4.08-6.09c1.25-2.1,2.35-4.15,3.29-6.13a52.44,52.44,0,0,0,2.25-5.36,15.58,15.58,0,0,0,.91-3.66v-.28c-.36,0-1.14.75-2.33,2.25a61.05,61.05,0,0,0-4.12,6q-2.34,3.79-4.67,8.56A78.07,78.07,0,0,0,978.55,562.71Z" transform="translate(-345.5 -369.88)"/><path class="cls-1" d="M1017,595.86q-4.11,0-5.63-2.7a12,12,0,0,1-1.51-5.91,21,21,0,0,1,.92-6,24.68,24.68,0,0,1,2.52-5.72,16,16,0,0,1,3.57-4.26,6.27,6.27,0,0,1,4-1.6,6.17,6.17,0,0,1,1.51.23,2.32,2.32,0,0,1,1.24.68,27.65,27.65,0,0,0-2.25,3.39,43.25,43.25,0,0,0-2.1,4.26,28,28,0,0,0-1.51,4.53,18,18,0,0,0-.55,4.22,6.05,6.05,0,0,0,.68,3,2.58,2.58,0,0,0,2.43,1.19,7.19,7.19,0,0,0,4.17-2,35.78,35.78,0,0,0,4.62-4.53,16,16,0,0,1-4.21-5.82,20.24,20.24,0,0,1-1.28-7.65,12.34,12.34,0,0,1,1-4.39,10.69,10.69,0,0,1,3.11-4.3,8.64,8.64,0,0,1,5.82-1.84c2.62,0,4.47.74,5.54,2.2a8.63,8.63,0,0,1,1.6,5.22,19.76,19.76,0,0,1-1.79,7.6,50.19,50.19,0,0,1-4.25,8,5.71,5.71,0,0,0,2.56.55,10.92,10.92,0,0,0,3.3-.64,12,12,0,0,0,3.75-2.15,10.56,10.56,0,0,0,2.93-4.08l1.65,1.19a14.7,14.7,0,0,1-5.36,6.82,12,12,0,0,1-6.54,2.15,12.88,12.88,0,0,1-2.39-.22,14.51,14.51,0,0,1-2.19-.6,35.84,35.84,0,0,1-7.15,6.41A14.34,14.34,0,0,1,1017,595.86Zm14.47-14.1a39.32,39.32,0,0,0,3.76-6.87,17.38,17.38,0,0,0,1.55-6.78,5.66,5.66,0,0,0-.64-3.07,2.16,2.16,0,0,0-1.92-1c-1.16,0-2.35.83-3.57,2.47a10.2,10.2,0,0,0-1.83,6.23,20.16,20.16,0,0,0,.68,4.67A11,11,0,0,0,1031.48,581.76Z" transform="translate(-345.5 -369.88)"/><path class="cls-1" d="M1053.37,597.14a9,9,0,0,1-6.5-2.38q-2.47-2.38-2.48-7.24a39.64,39.64,0,0,1,1.42-9.34,115.58,115.58,0,0,1,3.62-11.53,11.27,11.27,0,0,0-1.51-.32,6.85,6.85,0,0,1-1.69-.51V563c1,.13,1.78.22,2.42.28l2,.18q1.92-4.85,4.17-9.39a89.49,89.49,0,0,1,4.49-8.1,33.72,33.72,0,0,1,4.25-5.63c1.35-1.38,2.54-2.06,3.57-2.06a2.72,2.72,0,0,1,1.74.68,2.43,2.43,0,0,1,.83,2,12.09,12.09,0,0,1-1.88,5.22q-1.87,3.39-4.62,7.92c-1.83,3-3.61,6.25-5.31,9.67h2.83q4,0,7.28-.14t6.64-.51v3c-3.35.3-6.44.55-9.24.73s-5.5.31-8.06.37h-1.1a85.41,85.41,0,0,0-3.34,9.2,31.69,31.69,0,0,0-1.42,9.2c0,2.51.39,4.28,1.19,5.31a4.41,4.41,0,0,0,3.75,1.56q4.58,0,9.39-4.17a35.93,35.93,0,0,0,8.38-11.31l1.28.92a44,44,0,0,1-5.91,9.8,29.8,29.8,0,0,1-7.65,6.91A16.07,16.07,0,0,1,1053.37,597.14Z" transform="translate(-345.5 -369.88)"/><path class="cls-1" d="M1077.45,595.86q-4.11,0-5.63-2.7a11.87,11.87,0,0,1-1.51-5.91,21.33,21.33,0,0,1,.91-6,24.68,24.68,0,0,1,2.52-5.72,16.33,16.33,0,0,1,3.57-4.26,6.32,6.32,0,0,1,4-1.6,6.24,6.24,0,0,1,1.51.23,2.25,2.25,0,0,1,1.23.68,26.57,26.57,0,0,0-2.24,3.39,43.25,43.25,0,0,0-2.1,4.26,28,28,0,0,0-1.52,4.53,18.54,18.54,0,0,0-.55,4.22,6,6,0,0,0,.69,3,2.58,2.58,0,0,0,2.43,1.19,7.19,7.19,0,0,0,4.17-2,36.43,36.43,0,0,0,4.62-4.53,16,16,0,0,1-4.21-5.82,20.23,20.23,0,0,1-1.29-7.65,12.38,12.38,0,0,1,1-4.39,10.69,10.69,0,0,1,3.11-4.3,8.62,8.62,0,0,1,5.82-1.84c2.62,0,4.47.74,5.54,2.2a8.69,8.69,0,0,1,1.6,5.22,19.76,19.76,0,0,1-1.79,7.6,49.44,49.44,0,0,1-4.26,8,5.79,5.79,0,0,0,2.57.55,10.92,10.92,0,0,0,3.29-.64,11.89,11.89,0,0,0,3.76-2.15,10.56,10.56,0,0,0,2.93-4.08l1.65,1.19a14.76,14.76,0,0,1-5.36,6.82,12,12,0,0,1-6.55,2.15,12.86,12.86,0,0,1-2.38-.22,14.51,14.51,0,0,1-2.19-.6,35.84,35.84,0,0,1-7.15,6.41A14.34,14.34,0,0,1,1077.45,595.86Zm14.47-14.1a39.32,39.32,0,0,0,3.76-6.87,17.56,17.56,0,0,0,1.55-6.78,5.66,5.66,0,0,0-.64-3.07,2.16,2.16,0,0,0-1.92-1c-1.16,0-2.35.83-3.57,2.47a10.2,10.2,0,0,0-1.83,6.23,19.63,19.63,0,0,0,.68,4.67A11,11,0,0,0,1091.92,581.76Z" transform="translate(-345.5 -369.88)"/><path class="cls-1" d="M1110.05,618.57a7.37,7.37,0,0,1-4.26-1.37,5.11,5.11,0,0,1-2-4.49,8.75,8.75,0,0,1,1.7-5.27,18.9,18.9,0,0,1,4.49-4.3,51.18,51.18,0,0,1,6-3.62q3.21-1.65,6.23-3.11,1-2.48,1.92-5.31t1.74-6.14a37.26,37.26,0,0,1-6.73,6.69,11.83,11.83,0,0,1-7.19,2.65,7.18,7.18,0,0,1-5.81-2.56A10.22,10.22,0,0,1,1104,585a18.19,18.19,0,0,1,2.42-9.11,29.11,29.11,0,0,1,6.28-7.6A31.1,31.1,0,0,1,1121,563a21.46,21.46,0,0,1,8.42-1.88,7.56,7.56,0,0,1,4.4,1.05,3,3,0,0,1,1.46,2.43,2.35,2.35,0,0,1-.64,1.74,4.7,4.7,0,0,1-.82.73,4.51,4.51,0,0,0-1.88-1.32,6.92,6.92,0,0,0-2.24-.32,13,13,0,0,0-6.87,2,22.08,22.08,0,0,0-5.81,5.17,29.12,29.12,0,0,0-4,6.55,15.62,15.62,0,0,0-1.46,6.14,4.17,4.17,0,0,0,.82,2.79,2.56,2.56,0,0,0,2,1c1.7,0,3.78-1.11,6.22-3.34a50.27,50.27,0,0,0,7.05-8.11c.13-.48.23-.92.33-1.32s.16-.78.22-1.15a15.89,15.89,0,0,1,2.2-5.4A4.2,4.2,0,0,1,1134,568a9.13,9.13,0,0,1,1.15.09c.45.06,1,.15,1.51.28a26.37,26.37,0,0,1-.92,5.4c-.61,2.5-1.43,5.42-2.47,8.74s-2.2,6.73-3.48,10.21a28.13,28.13,0,0,0,5.77-3.34,28.85,28.85,0,0,0,5.4-5.22,22.29,22.29,0,0,0,3.76-6.82l1.65,1.65a22.93,22.93,0,0,1-4.54,7.69,38.11,38.11,0,0,1-6.64,6,41.74,41.74,0,0,1-6.59,3.89,90.05,90.05,0,0,1-5.36,11,33.42,33.42,0,0,1-6.13,8A10.21,10.21,0,0,1,1110.05,618.57Zm-.36-4.21c1.1,0,2.6-1,4.53-3.12s4-5.58,6.27-10.53c-2.26,1.1-4.33,2.23-6.23,3.39a20.56,20.56,0,0,0-4.57,3.66,6,6,0,0,0-1.74,4,3.11,3.11,0,0,0,.5,1.88A1.49,1.49,0,0,0,1109.69,614.36Z" transform="translate(-345.5 -369.88)"/><path class="cls-1" d="M1159.32,595.31a8.23,8.23,0,0,1-5.5-1.79,6,6,0,0,1-2.1-4.81,13.71,13.71,0,0,1,1.28-5.49c.86-2,1.72-3.88,2.61-5.77a12.22,12.22,0,0,0,1.33-5,4.87,4.87,0,0,0-1.38-3.53,11.74,11.74,0,0,0-3.2-2.34,99.6,99.6,0,0,1-4.53,9.76q-2.52,4.71-4.08,7.37l-1.37-2.66q1.27-2.37,3.39-6.77a102.28,102.28,0,0,0,4-9.8,3.35,3.35,0,0,1-.91-2.47,7.75,7.75,0,0,1,1.46-4.49c1-1.41,1.93-2.11,2.84-2.11a1.69,1.69,0,0,1,1.61,1.24,5.78,5.78,0,0,1,.5,1.69,6.26,6.26,0,0,1-.41,1.65q-.42,1.18-.6,1.74c.06.67.6,1.33,1.6,2s2.16,1.39,3.44,2.24a14.31,14.31,0,0,1,3.39,3.21,7.81,7.81,0,0,1,1.46,4.85,13.48,13.48,0,0,1-1.19,5.41c-.79,1.83-1.59,3.54-2.38,5.12a9.59,9.59,0,0,0-1.19,4.12,1.83,1.83,0,0,0,.69,1.7,3.1,3.1,0,0,0,1.6.41,9.36,9.36,0,0,0,4.58-1.33A24.67,24.67,0,0,0,1171,586a33.29,33.29,0,0,0,4-4.44,26.19,26.19,0,0,0,2.65-4.26l2.2,1.65a31.19,31.19,0,0,1-5,7.74,30.61,30.61,0,0,1-7.32,6.22A15.64,15.64,0,0,1,1159.32,595.31Z" transform="translate(-345.5 -369.88)"/><path class="cls-1" d="M1180.75,597.23a7.65,7.65,0,0,1-5.27-2c-1.49-1.35-2.24-3.36-2.24-6.05a19.44,19.44,0,0,1,1.46-7,35.5,35.5,0,0,1,4-7.41,39,39,0,0,1,5.86-6.64,30.3,30.3,0,0,1,7.05-4.81,17,17,0,0,1,7.51-1.83,11,11,0,0,1,6.69,2,6.29,6.29,0,0,1,2.74,5.31,3.94,3.94,0,0,1-1.73,3.58,5.57,5.57,0,0,1-4.13.64c.13-.55.23-1.1.32-1.65a9.74,9.74,0,0,0,.14-1.74,7.27,7.27,0,0,0-.73-3.3c-.49-1-1.53-1.46-3.11-1.46a9.5,9.5,0,0,0-5.22,1.74,24.68,24.68,0,0,0-5.09,4.53,40.21,40.21,0,0,0-4.35,6.13,37.94,37.94,0,0,0-3,6.55,18.1,18.1,0,0,0-1.1,5.77c0,2,.7,2.93,2.11,2.93a7.74,7.74,0,0,0,4.67-2.06,37.6,37.6,0,0,0,5.17-5.17c1.74-2.08,3.41-4.2,5-6.37s3-4,4.13-5.54a.83.83,0,0,1,.73-.46c.24.07.71.2,1.42.42a6.92,6.92,0,0,1,2,1,1.94,1.94,0,0,1,.91,1.65,5.15,5.15,0,0,1-.78,2.33q-.78,1.42-1.83,3.12a31.13,31.13,0,0,0-1.83,3.38,7.79,7.79,0,0,0-.78,3.25,4.31,4.31,0,0,0,.64,2.25,2.28,2.28,0,0,0,2.11,1q2.19,0,6.18-3.25t8.1-11l1.74,1.75a39.16,39.16,0,0,1-5.26,8.74,27.14,27.14,0,0,1-6.46,5.95,12.62,12.62,0,0,1-6.86,2.15,6.59,6.59,0,0,1-5.59-2.38,9.34,9.34,0,0,1-2-5.12v-.46a54.71,54.71,0,0,1-6.73,7A10,10,0,0,1,1180.75,597.23Z" transform="translate(-345.5 -369.88)"/><path class="cls-1" d="M1211.15,618.57a3.56,3.56,0,0,1-1.56-.41,6.54,6.54,0,0,1-1.42-1,2.42,2.42,0,0,1-.69-.92q2.3-6.69,3.9-11.58c1.07-3.27,2-6.36,2.7-9.25s1.39-5.92,2-9.07,1.16-6.75,1.74-10.81,1.23-9,2-14.69a5.51,5.51,0,0,1,.45-1.61c.19-.33.77-.5,1.74-.5a5.09,5.09,0,0,1,4.12,1.51,5,5,0,0,1,1.29,3.34,27.89,27.89,0,0,1-.32,3.21q-.33,2.29-1,5.4a35.81,35.81,0,0,1,4-5,20.19,20.19,0,0,1,5-3.9,12.21,12.21,0,0,1,6-1.51,9.93,9.93,0,0,1,7.42,3,11,11,0,0,1,2.93,8,20.47,20.47,0,0,1-1.6,7.56,28.16,28.16,0,0,1-4.54,7.51,23.79,23.79,0,0,1-7,5.76,18.58,18.58,0,0,1-9.06,2.25,12.38,12.38,0,0,1-4.67-.73q-1.74-.74-1.74-1.65a.74.74,0,0,1,.68-.78,7.83,7.83,0,0,1,1.51-.14,18.33,18.33,0,0,0,7.83-1.83,20.53,20.53,0,0,0,6.09-4.53,21,21,0,0,0,3.94-6,15.9,15.9,0,0,0,1.38-6.32,9,9,0,0,0-1.24-4.76,4.25,4.25,0,0,0-3.89-2,8.66,8.66,0,0,0-4.63,1.47,20.33,20.33,0,0,0-4.35,3.71,36.36,36.36,0,0,0-3.57,4.67,33.88,33.88,0,0,0-2.38,4.26q-1.74,6-3.16,12t-2.7,11.13a86.49,86.49,0,0,1-2.61,8.69,11.57,11.57,0,0,1-2.88,4.86A2.38,2.38,0,0,1,1211.15,618.57Z" transform="translate(-345.5 -369.88)"/><path class="cls-1" d="M1258.31,596.41q-2,0-2.89-3.12a26.92,26.92,0,0,1-.87-7.23,45.36,45.36,0,0,1,1.42-10.17,112.13,112.13,0,0,1,3.85-12.54q2.43-6.6,5.4-12.91a120.85,120.85,0,0,1,6.14-11.5,52.6,52.6,0,0,1,6-8.28c1.92-2.08,3.62-3.12,5.08-3.12a3.17,3.17,0,0,1,2.93,2.11,10.09,10.09,0,0,1,1,4.4,21,21,0,0,1-1.14,6.08,57.23,57.23,0,0,1-3.16,7.74,67.67,67.67,0,0,1-4.72,8.11,55.68,55.68,0,0,1-5.86,7.28,31.18,31.18,0,0,1-6.55,5.31,52.14,52.14,0,0,0-1.87,5.81,39.93,39.93,0,0,0-1,5.09,41.28,41.28,0,0,0-.27,4.67,8.13,8.13,0,0,0,0,1c0,.33,0,.65,0,1a17.87,17.87,0,0,0,1.19-2.84q.83-2.28,2.25-5.36a38.16,38.16,0,0,1,3.52-6,19.85,19.85,0,0,1,5-4.94,11.07,11.07,0,0,1,6.5-2,7.46,7.46,0,0,1,4.85,1.42,7.73,7.73,0,0,1,2.47,3.48,12.29,12.29,0,0,1,.74,4.16,15.33,15.33,0,0,1-1,5.5q-1,2.56-1.92,4.8a10.87,10.87,0,0,0-1,4.26,2.92,2.92,0,0,0,.73,2.29,2.55,2.55,0,0,0,1.74.64,8.38,8.38,0,0,0,4.72-2,30.55,30.55,0,0,0,5.4-5.36,37.45,37.45,0,0,0,4.63-7.37l1.46,1.56a47.49,47.49,0,0,1-4.94,8.42,26,26,0,0,1-6.23,6.14,12.88,12.88,0,0,1-7.33,2.29,7.2,7.2,0,0,1-5.31-1.84,6.2,6.2,0,0,1-1.83-4.58,15.07,15.07,0,0,1,.69-4.25q.69-2.34,1.32-4.72a16.64,16.64,0,0,0,.65-4.3,3.79,3.79,0,0,0-1-3,3.44,3.44,0,0,0-2.33-.83,5.76,5.76,0,0,0-4.12,1.79,17.9,17.9,0,0,0-3.3,4.62c-1,1.89-1.89,3.89-2.75,6s-1.71,4.11-2.56,6a22.1,22.1,0,0,1-2.7,4.62A4.12,4.12,0,0,1,1258.31,596.41Zm8.61-33.7a34.29,34.29,0,0,0,4.58-5,67.92,67.92,0,0,0,4.07-6.09c1.25-2.1,2.35-4.15,3.3-6.13a54.51,54.51,0,0,0,2.24-5.36,16.25,16.25,0,0,0,.92-3.66v-.28q-.55,0-2.34,2.25a62.84,62.84,0,0,0-4.12,6q-2.34,3.79-4.67,8.56A76.5,76.5,0,0,0,1266.92,562.71Z" transform="translate(-345.5 -369.88)"/><path class="cls-1" d="M1303.73,618.57a7.17,7.17,0,0,1-4.26-1.42,5.22,5.22,0,0,1-2-4.53,8.6,8.6,0,0,1,1.74-5.27,20.1,20.1,0,0,1,4.49-4.3,43.83,43.83,0,0,1,5.9-3.57q3.16-1.61,6.09-3,1-2.65,2.25-6.73t2.15-7.56a48.25,48.25,0,0,1-6,7,10.18,10.18,0,0,1-7.15,3,9.87,9.87,0,0,1-3.48-.69,6.69,6.69,0,0,1-3.07-2.38,7.56,7.56,0,0,1-1.23-4.54,23.76,23.76,0,0,1,.87-5.76,50.13,50.13,0,0,1,2.2-6.64,29.08,29.08,0,0,1,2.79-5.41c1-1.43,1.83-2.15,2.56-2.15a5,5,0,0,1,1.61.41,10.83,10.83,0,0,1,2.06,1.1,3.08,3.08,0,0,1,1.28,1.51,20.7,20.7,0,0,0-1.83,3.16,45.46,45.46,0,0,0-1.93,4.58,50.32,50.32,0,0,0-1.51,4.9,17.69,17.69,0,0,0-.59,4.12,4.84,4.84,0,0,0,.55,2.38,2.16,2.16,0,0,0,2.1,1,6.92,6.92,0,0,0,4.17-1.65,25,25,0,0,0,4.21-4.21,52,52,0,0,0,3.71-5.22,17.38,17.38,0,0,0,.37-2,16.33,16.33,0,0,1,.64-2.83A7.26,7.26,0,0,1,1324,569a4.11,4.11,0,0,1,3.25-1.28,10,10,0,0,1,1.38.09c.42.06.94.15,1.55.27a28.71,28.71,0,0,1-1,5.36q-1,4-2.52,9.2t-3.48,10.44a29.29,29.29,0,0,0,8-5.17,25.42,25.42,0,0,0,6.73-10.31l1.55,1.29a22.39,22.39,0,0,1-4.16,8,30.26,30.26,0,0,1-6.28,5.77,42.76,42.76,0,0,1-7,3.94,97.72,97.72,0,0,1-5.35,11,34,34,0,0,1-6.09,8A10,10,0,0,1,1303.73,618.57Zm-.92-3.39q1.74,0,4.86-3.66a45.52,45.52,0,0,0,6.31-11,55.7,55.7,0,0,0-5.9,3.43,26.17,26.17,0,0,0-5,4.17,6.62,6.62,0,0,0-2,4.49,3.9,3.9,0,0,0,.41,1.74A1.39,1.39,0,0,0,1302.81,615.18Z" transform="translate(-345.5 -369.88)"/><path class="cls-1" d="M1381.11,600.89q-5,0-7-2a7.32,7.32,0,0,1-2-5.09,23.58,23.58,0,0,1,1.06-6.36q1.05-3.71,2.15-7.1,2.19-6.5,4.58-12.82c1.58-4.21,3.19-8.27,4.8-12.18s3.18-7.63,4.67-11.17,2.89-6.81,4.17-9.8q-6.22.09-10.76.37t-8.29.68q-3.75.42-7.78,1.15a7.85,7.85,0,0,1,3.62-5.91,21.57,21.57,0,0,1,8.47-2.88A80,80,0,0,1,1391,527q3.57,0,6.73.14c2.1.09,4.12.23,6,.41l5.63.55c3.85.37,6.92.61,9.21.74s3.92.18,4.9.18a16.26,16.26,0,0,1-6.92,3.71,43.24,43.24,0,0,1-8.74,1.42q-4.59.27-8.7.27-4.39,10.82-8.06,22.44t-6.78,23q-1.18,4.39-2,7.47a53.34,53.34,0,0,0-1.14,5.58,36.49,36.49,0,0,0-.37,5.36c0,.3,0,.65.05,1A14.15,14.15,0,0,0,1381.11,600.89Z" transform="translate(-345.5 -369.88)"/><path class="cls-1" d="M1407.39,595.86q-4.12,0-5.63-2.7a11.87,11.87,0,0,1-1.51-5.91,21,21,0,0,1,.91-6,24.68,24.68,0,0,1,2.52-5.72,16.33,16.33,0,0,1,3.57-4.26,5.58,5.58,0,0,1,5.5-1.37,2.25,2.25,0,0,1,1.23.68,26.57,26.57,0,0,0-2.24,3.39,41.18,41.18,0,0,0-2.11,4.26,29,29,0,0,0-1.51,4.53,18,18,0,0,0-.55,4.22,6,6,0,0,0,.69,3,2.57,2.57,0,0,0,2.43,1.19q1.72,0,4.16-2a35.85,35.85,0,0,0,4.63-4.53,16,16,0,0,1-4.22-5.82,20.44,20.44,0,0,1-1.28-7.65,12.34,12.34,0,0,1,1-4.39,10.62,10.62,0,0,1,3.12-4.3,8.61,8.61,0,0,1,5.81-1.84c2.63,0,4.47.74,5.54,2.2a8.63,8.63,0,0,1,1.6,5.22,19.73,19.73,0,0,1-1.78,7.6,49.44,49.44,0,0,1-4.26,8,5.76,5.76,0,0,0,2.57.55,10.92,10.92,0,0,0,3.29-.64,12.11,12.11,0,0,0,3.76-2.15,10.67,10.67,0,0,0,2.93-4.08l1.65,1.19a14.76,14.76,0,0,1-5.36,6.82,12,12,0,0,1-6.55,2.15,12.78,12.78,0,0,1-2.38-.22,14.33,14.33,0,0,1-2.2-.6,35.79,35.79,0,0,1-7.14,6.41A14.37,14.37,0,0,1,1407.39,595.86Zm14.47-14.1a40,40,0,0,0,3.75-6.87,17.4,17.4,0,0,0,1.56-6.78,5.76,5.76,0,0,0-.64-3.07,2.17,2.17,0,0,0-1.93-1c-1.16,0-2.35.83-3.57,2.47a10.2,10.2,0,0,0-1.83,6.23,19.71,19.71,0,0,0,.69,4.67A10.86,10.86,0,0,0,1421.86,581.76Z" transform="translate(-345.5 -369.88)"/><path class="cls-1" d="M1442.37,595.67a5.92,5.92,0,0,1-5.08-2.88,11.42,11.42,0,0,1-2-6.64,26.65,26.65,0,0,1,.82-6,48.13,48.13,0,0,1,2.15-6.78,32.51,32.51,0,0,1,2.75-5.49c1-1.47,1.82-2.2,2.61-2.2a5,5,0,0,1,2,.69A9.45,9.45,0,0,1,1448,568a31.91,31.91,0,0,0-2.43,4.49A51.11,51.11,0,0,0,1443,579a21.29,21.29,0,0,0-1.1,6.32c0,.24,0,.82.14,1.74a7.83,7.83,0,0,0,.69,2.56,1.94,1.94,0,0,0,1.92,1.19,5.07,5.07,0,0,0,3.34-1.69,28.48,28.48,0,0,0,3.66-4.4c1.25-1.8,2.48-3.74,3.67-5.81s2.25-4.09,3.2-6,1.73-3.6,2.34-4.94a13.85,13.85,0,0,1,2.15.46,9.32,9.32,0,0,1,2.33,1,1.86,1.86,0,0,1,1,1.69,12.64,12.64,0,0,1-.87,2.25q-.87,2-2,4.71a57,57,0,0,0-2,5.63,18,18,0,0,0-.87,5.08,4.73,4.73,0,0,0,.51,2.25,2,2,0,0,0,2,1,8.78,8.78,0,0,0,4.58-1.74,27,27,0,0,0,5.5-5,35.33,35.33,0,0,0,5-7.87l1.38,1.1a35.13,35.13,0,0,1-5.22,8.88,27.3,27.3,0,0,1-6.87,6.18,13.6,13.6,0,0,1-7.14,2.24,5.71,5.71,0,0,1-4-1.23,6.16,6.16,0,0,1-1.78-3.21,21.42,21.42,0,0,1-.55-4v-1.83a58,58,0,0,1-3.39,4.81,21.68,21.68,0,0,1-3.89,3.89A7.11,7.11,0,0,1,1442.37,595.67Z" transform="translate(-345.5 -369.88)"/><path class="cls-1" d="M1492.73,595.31a8.19,8.19,0,0,1-5.49-1.79,6,6,0,0,1-2.11-4.81,13.73,13.73,0,0,1,1.29-5.49c.85-2,1.72-3.88,2.61-5.77a12.19,12.19,0,0,0,1.32-5,4.86,4.86,0,0,0-1.37-3.53,11.79,11.79,0,0,0-3.21-2.34,97.33,97.33,0,0,1-4.53,9.76q-2.52,4.71-4.07,7.37l-1.38-2.66q1.29-2.37,3.39-6.77a102.22,102.22,0,0,0,4-9.8,3.35,3.35,0,0,1-.92-2.47,7.69,7.69,0,0,1,1.47-4.49c1-1.41,1.92-2.11,2.84-2.11a1.68,1.68,0,0,1,1.6,1.24,5.58,5.58,0,0,1,.51,1.69,6,6,0,0,1-.42,1.65c-.27.79-.47,1.37-.59,1.74.06.67.59,1.33,1.6,2s2.15,1.39,3.43,2.24a13.94,13.94,0,0,1,3.39,3.21,7.75,7.75,0,0,1,1.47,4.85,13.65,13.65,0,0,1-1.19,5.41q-1.2,2.75-2.38,5.12a9.45,9.45,0,0,0-1.19,4.12,1.83,1.83,0,0,0,.68,1.7,3.11,3.11,0,0,0,1.61.41,9.32,9.32,0,0,0,4.57-1.33,24.36,24.36,0,0,0,4.67-3.43,32.62,32.62,0,0,0,4-4.44,26.32,26.32,0,0,0,2.66-4.26l2.2,1.65a31.19,31.19,0,0,1-5,7.74,30.65,30.65,0,0,1-7.33,6.22A15.61,15.61,0,0,1,1492.73,595.31Z" transform="translate(-345.5 -369.88)"/><path class="cls-1" d="M1519.75,597.6a13,13,0,0,1-7.37-1.88,10.51,10.51,0,0,1-4-4.76,15.4,15.4,0,0,1-1.19-5.91,9.37,9.37,0,0,1,.74-4.12,5.11,5.11,0,0,1,1.83-2.15,11.48,11.48,0,0,1,2.06-1,4.12,4.12,0,0,0,1.42-.83,65.88,65.88,0,0,0,4.71-5.54,35.2,35.2,0,0,0,4.17-7v-.92c0-2.44.41-4.17,1.24-5.17a3.62,3.62,0,0,1,2.88-1.51,2.05,2.05,0,0,1,1.6.55,2.22,2.22,0,0,1,.6,1.28,4.51,4.51,0,0,1-.23,1.28,7.1,7.1,0,0,0-.23,2,18,18,0,0,0,1.33,6.28c.88,2.35,1.77,4.84,2.65,7.46a25,25,0,0,1,1.33,8.06q0,1.1-.09,2a15.1,15.1,0,0,1-.27,1.74,13.56,13.56,0,0,0,5.58-3.16,24.6,24.6,0,0,0,5.22-7.19l1.1.83a20.21,20.21,0,0,1-5,8.38,14.31,14.31,0,0,1-7.69,3.89,10.54,10.54,0,0,1-4.81,5.59A15.45,15.45,0,0,1,1519.75,597.6Zm-.64-4A6.51,6.51,0,0,0,1525,590a18.84,18.84,0,0,1-6.78-2.93,20.37,20.37,0,0,1-4.67-4.31c-.85.19-1.28,1-1.28,2.48a10.16,10.16,0,0,0,1.74,5.67A5.74,5.74,0,0,0,1519.11,593.57Zm6.59-6.32a7,7,0,0,0,.23-1.51c0-.58,0-1,0-1.33a37.52,37.52,0,0,0-1.1-8.15q-1-4-2-8.24-1.65,2.84-3.84,6.14a40.14,40.14,0,0,1-4.13,5.31,18,18,0,0,0,10.81,7.78Z" transform="translate(-345.5 -369.88)"/><circle class="cls-2" cx="150.75" cy="112.64" r="22.29"/><path class="cls-2" d="M552.41,567.4H630a12,12,0,0,0,12-12v-144a12,12,0,0,0-12-12H427.66V385.5a5,5,0,0,0-5-5H398.37a5,5,0,0,0-5,5v13.86H362.5a12,12,0,0,0-12,12v144a12,12,0,0,0,12,12h76.74" transform="translate(-345.5 -369.88)"/><path class="cls-3" d="M496,427c2.51,0,30.32.74,46,24,12.45,18.46,9,41-1,63l-41,82-52-88c-9.65-19.36-8-42.19,4.44-58.89C468,428.17,492.83,427.08,496,427Z" transform="translate(-345.5 -369.88)"/></svg>